<svg width="40" height="40" viewBox="0 0 40 40" fill="none" xmlns="http://www.w3.org/2000/svg">
<rect width="40" height="40" rx="6" fill="#4663AC"/>
<g clip-path="url(#clip0_2_17)">
<path d="M23.775 9.60059C24.8223 9.60296 25.8573 9.82691 26.812 10.2577C27.7666 10.6886 28.6192 11.3165 29.3139 12.1003C30.0086 12.8842 30.5295 13.8061 30.8426 14.8056C31.1556 15.8051 31.2536 16.8595 31.1301 17.8995C31.0066 18.9395 30.6644 19.9417 30.1261 20.8401C29.5877 21.7385 28.8654 22.5128 28.0065 23.1121C27.1476 23.7115 26.1716 24.1223 25.1426 24.3176C24.1136 24.513 23.055 24.4883 22.0362 24.2454L20.778 25.5036C20.6841 25.5977 20.5726 25.6724 20.4498 25.7233C20.327 25.7743 20.1954 25.8005 20.0625 25.8006H19.05V26.8131C19.0499 26.946 19.0237 27.0776 18.9727 27.2004C18.9218 27.3232 18.8471 27.4347 18.753 27.5286L18.078 28.2036C17.9841 28.2977 17.8726 28.3724 17.7498 28.4233C17.627 28.4743 17.4954 28.5005 17.3625 28.5006H16.35V29.5131C16.3499 29.646 16.3237 29.7776 16.2727 29.9004C16.2218 30.0232 16.1471 30.1347 16.053 30.2286L15.378 30.9036C15.2841 30.9977 15.1726 31.0724 15.0498 31.1233C14.927 31.1743 14.7954 31.2005 14.6625 31.2006H11.9625C11.3359 31.2006 10.735 30.9517 10.292 30.5086C9.8489 30.0656 9.59999 29.4647 9.59999 28.8381V26.1381C9.59999 25.8694 9.70664 25.6129 9.89699 25.4226L16.5552 18.7644C16.2922 17.6725 16.2803 16.5353 16.5204 15.4382C16.7605 14.341 17.2464 13.3127 17.9414 12.4305C18.6364 11.5484 19.5225 10.8353 20.533 10.3452C21.5434 9.85497 22.6519 9.60039 23.775 9.60059ZM18.375 17.0256C18.3736 17.6074 18.4681 18.1866 18.6517 18.7387C18.7114 18.9172 18.7201 19.1087 18.6769 19.2919C18.6338 19.475 18.5404 19.6425 18.4074 19.7755L11.625 26.5566V28.8381C11.625 29.0244 11.7762 29.1756 11.9625 29.1756H14.244L14.325 29.0946V27.4881C14.325 27.2196 14.4317 26.962 14.6215 26.7721C14.8114 26.5823 15.069 26.4756 15.3375 26.4756H16.944L17.025 26.3946V24.7881C17.025 24.5196 17.1317 24.262 17.3215 24.0721C17.5114 23.8823 17.769 23.7756 18.0375 23.7756H19.644L21.025 22.3918C21.1582 22.259 21.3258 22.1659 21.5089 22.123C21.692 22.0801 21.8835 22.089 22.0618 22.1488C23.1451 22.5112 24.3154 22.5208 25.4044 22.1761C26.4934 21.8314 27.4451 21.1503 28.1226 20.2306C28.8001 19.3109 29.1685 18.2001 29.1749 17.0579C29.1813 15.9156 28.8253 14.8008 28.158 13.8736C27.4908 12.9465 26.5468 12.2548 25.4617 11.898C24.3766 11.5412 23.2062 11.5377 22.119 11.888C21.0318 12.2383 20.0836 12.9243 19.4109 13.8475C18.7381 14.7706 18.3755 15.8833 18.375 17.0256ZM24.45 17.7006C24.0919 17.7006 23.7486 17.5584 23.4954 17.3052C23.2422 17.052 23.1 16.7086 23.1 16.3506C23.1 15.9925 23.2422 15.6492 23.4954 15.396C23.7486 15.1428 24.0919 15.0006 24.45 15.0006C24.808 15.0006 25.1514 15.1428 25.4046 15.396C25.6578 15.6492 25.8 15.9925 25.8 16.3506C25.8 16.7086 25.6578 17.052 25.4046 17.3052C25.1514 17.5584 24.808 17.7006 24.45 17.7006Z" fill="white"/>
</g>
<defs>
<clipPath id="clip0_2_17">
<rect width="21.6" height="21.6" fill="white" transform="translate(9.59999 9.60059)"/>
</clipPath>
</defs>
</svg>
